# xmcd CD database file
#
# Track frame offsets:
#	150
#	19005
#	36982
#	69308
#	86670
#	106677
#	127015
#	150678
#	166177
#	185904
#	210915
#	238749
#	254906
#	281174
#	303344
#	314811
#
# Disc length: 4424 seconds
#
# Revision: 0
# Processed by: cddbd v1.5.1PL2 Copyright (c) Steve Scherf et al.
# Submitted via: CDex 1.51
#
DISCID=e7114610
DTITLE=Portishead - Rare Trax
DYEAR=1900
DGENRE=New Age
TTITLE0=Sour Sour Times
TTITLE1=Numbed in Moscow
TTITLE2=A Tribute To Mouk and Canatella
TTITLE3=Numb
TTITLE4=Lot More
TTITLE5=Theme From To Kill A Dead Man
TTITLE6=Airbus Reconstruction
TTITLE7=Revenge Of The Numbl
TTITLE8=Sheated Times
TTITLE9=Glory Box (Mudflop Mix)
TTITLE10=Scorn
TTITLE11=Sheared Box
TTITLE12=Toy Box
TTITLE13=Wandering Star (Live)
TTITLE14=Interlude
TTITLE15=Mourning Air (War Child)
EXTD=
EXTT0=
EXTT1=
EXTT2=
EXTT3=
EXTT4=
EXTT5=
EXTT6=
EXTT7=
EXTT8=
EXTT9=
EXTT10=
EXTT11=
EXTT12=
EXTT13=
EXTT14=
EXTT15=
PLAYORDER=
